@startuml

namespace HasHub {
  namespace Command {
    class Configure {
      Detector
      LocalConfig
      Connector
    }
    class CreateObjects {
      Parser
      Client...
    }
    class CreateMilestones {
      Parser
      Client
    }
    class ReferAll {
      Client...
    }
    class GenerateSample {
      Writer
    }
    CreateObjects -[hidden]r-> CreateMilestones
    ReferAll -[hidden]r-> GenerateSample
    CreateObjects -[hidden]d-> ReferAll
  }
  namespace Object {
    namespace Object {
      class Validator {
        FixMe
      }
      class Client {
        Connector
      }
      class IOType {
        Connection.Type
      }
      class Type
      class Parser
      Validator -r-> Type
      Client -r-> IOType
      Client --> Type
      IOType --> Type
      Parser -d-> Type
    }
    namespace Pipeline {
      class Validator {
        FixMe
      }
      class Client {
        Connector
      }
      class IOType {
        Connection.Type
      }
      class Type
      Validator -r-> Type
      Client -r-> IOType
      Client --> Type
      IOType --> Type
    }
    namespace Label {
      class Validator {
        FixMe
      }
      class Client {
        Connector
      }
      class IOType {
        Connection.Type
      }
      class Type
      Validator -r-> Type
      Client -r-> IOType
      Client --> Type
      IOType --> Type
    }
    namespace Collaborator {
      class Validator {
        FixMe
      }
      class Client {
        Connector
      }
      class IOType {
        Connection.Type
      }
      class Type
      Validator -r-> Type
      Client -r-> IOType
      Client --> Type
      IOType --> Type
    }
    namespace Milestone {
      class Validator {
        FixMe
      }
      class Client {
        Connector
      }
      class IOType {
        Connection.Type
      }
      class Type
      class Parser
      Validator -r-> Type
      Client -r-> IOType
      Client --> Type
      IOType --> Type
      Parser -d-> Type
    }
  }
  namespace Connection {
    class Connector
    class Logger
    namespace Config {
      class LocalConfig
      class Detector
      class Type
      LocalConfig -l-> Type
      Detector -u-> Type
    }
    HasHub.Connection.Connector -r-> HasHub.Connection.Logger
    HasHub.Connection.Connector --> HasHub.Connection.Config.Type
    HasHub.Connection.Connector --> HasHub.Connection.Config.LocalConfig
    HasHub.Connection.Logger --> HasHub.Connection.Config.LocalConfig
  }
  class FixMe
  namespace Yaml {
    class Reader
    class Writer
  }
}

HasHub.Command.GenerateSample -[hidden]d-> HasHub.Yaml.Writer

HasHub.Object.Object.Parser -u-> HasHub.Yaml.Reader
HasHub.Object.Milestone.Parser -u--> HasHub.Yaml.Reader

HasHub.Yaml.Reader -u-> HasHub.FixMe

HasHub.Object.Milestone.Type -[hidden]d-> HasHub.Connection.Connector

HasHub.Command.GenerateSample -[hidden]-> HasHub.FixMe

@enduml

